  0
SECTION
  2
BLOCKS
  0
ENDSEC
  0
SECTION
  2
ENTITIES
  0
LINE
  8
0
 10
0
 20
-32.2
 11
7.13397
 21
-32.2
  0
LINE
  8
0
 10
7.13397
 20
-32.2
 11
8
 21
-31.6933
  0
LINE
  8
0
 10
8
 20
-31.6933
 11
8.86602
 21
-32.2
  0
LINE
  8
0
 10
8.86602
 20
-32.2
 11
25.9521
 21
-32.2
  0
LINE
  8
0
 10
25.9521
 20
-32.2
 11
26.1952
 21
-32.2213
  0
LINE
  8
0
 10
26.1952
 20
-32.2213
 11
26.4309
 21
-32.2844
  0
LINE
  8
0
 10
26.4309
 20
-32.2844
 11
26.6521
 21
-32.3876
  0
LINE
  8
0
 10
26.6521
 20
-32.3876
 11
26.852
 21
-32.5275
  0
LINE
  8
0
 10
26.852
 20
-32.5275
 11
27.0245
 21
-32.7001
  0
LINE
  8
0
 10
27.0245
 20
-32.7001
 11
27.1645
 21
-32.9
  0
LINE
  8
0
 10
27.1645
 20
-32.9
 11
27.5764
 21
-33.6067
  0
LINE
  8
0
 10
27.5764
 20
-33.6067
 11
27.7164
 21
-33.8133
  0
LINE
  8
0
 10
27.7164
 20
-33.8133
 11
27.8889
 21
-33.9859
  0
LINE
  8
0
 10
27.8889
 20
-33.9859
 11
28.0888
 21
-34.1258
  0
LINE
  8
0
 10
28.0888
 20
-34.1258
 11
28.31
 21
-34.229
  0
LINE
  8
0
 10
28.31
 20
-34.229
 11
28.5457
 21
-34.2921
  0
LINE
  8
0
 10
28.5457
 20
-34.2921
 11
28.7888
 21
-34.3067
  0
LINE
  8
0
 10
28.7888
 20
-34.3067
 11
29.8512
 21
-34.3067
  0
LINE
  8
0
 10
29.8512
 20
-34.3067
 11
30.0943
 21
-34.2921
  0
LINE
  8
0
 10
30.0943
 20
-34.2921
 11
30.33
 21
-34.229
  0
LINE
  8
0
 10
30.33
 20
-34.229
 11
30.5512
 21
-34.1258
  0
LINE
  8
0
 10
30.5512
 20
-34.1258
 11
30.7511
 21
-33.9859
  0
LINE
  8
0
 10
30.7511
 20
-33.9859
 11
30.9236
 21
-33.8133
  0
LINE
  8
0
 10
30.9236
 20
-33.8133
 11
31.0636
 21
-33.6067
  0
LINE
  8
0
 10
31.0636
 20
-33.6067
 11
31.4755
 21
-32.9
  0
LINE
  8
0
 10
31.4755
 20
-32.9
 11
31.6155
 21
-32.7001
  0
LINE
  8
0
 10
31.6155
 20
-32.7001
 11
31.788
 21
-32.5275
  0
LINE
  8
0
 10
31.788
 20
-32.5275
 11
31.9879
 21
-32.3876
  0
LINE
  8
0
 10
31.9879
 20
-32.3876
 11
32.2091
 21
-32.2844
  0
LINE
  8
0
 10
32.2091
 20
-32.2844
 11
32.4448
 21
-32.2213
  0
LINE
  8
0
 10
32.4448
 20
-32.2213
 11
32.6879
 21
-32.2
  0
LINE
  8
0
 10
32.6879
 20
-32.2
 11
53.9521
 21
-32.2
  0
LINE
  8
0
 10
53.9521
 20
-32.2
 11
54.1952
 21
-32.2213
  0
LINE
  8
0
 10
54.1952
 20
-32.2213
 11
54.4309
 21
-32.2844
  0
LINE
  8
0
 10
54.4309
 20
-32.2844
 11
54.6521
 21
-32.3876
  0
LINE
  8
0
 10
54.6521
 20
-32.3876
 11
54.852
 21
-32.5275
  0
LINE
  8
0
 10
54.852
 20
-32.5275
 11
55.0245
 21
-32.7001
  0
LINE
  8
0
 10
55.0245
 20
-32.7001
 11
55.1645
 21
-32.9
  0
LINE
  8
0
 10
55.1645
 20
-32.9
 11
55.5764
 21
-33.6067
  0
LINE
  8
0
 10
55.5764
 20
-33.6067
 11
55.7164
 21
-33.8133
  0
LINE
  8
0
 10
55.7164
 20
-33.8133
 11
55.8889
 21
-33.9859
  0
LINE
  8
0
 10
55.8889
 20
-33.9859
 11
56.0888
 21
-34.1258
  0
LINE
  8
0
 10
56.0888
 20
-34.1258
 11
56.31
 21
-34.229
  0
LINE
  8
0
 10
56.31
 20
-34.229
 11
56.5457
 21
-34.2921
  0
LINE
  8
0
 10
56.5457
 20
-34.2921
 11
56.7888
 21
-34.3067
  0
LINE
  8
0
 10
56.7888
 20
-34.3067
 11
57.8512
 21
-34.3067
  0
LINE
  8
0
 10
57.8512
 20
-34.3067
 11
58.0943
 21
-34.2921
  0
LINE
  8
0
 10
58.0943
 20
-34.2921
 11
58.33
 21
-34.229
  0
LINE
  8
0
 10
58.33
 20
-34.229
 11
58.5512
 21
-34.1258
  0
LINE
  8
0
 10
58.5512
 20
-34.1258
 11
58.7511
 21
-33.9859
  0
LINE
  8
0
 10
58.7511
 20
-33.9859
 11
58.9236
 21
-33.8133
  0
LINE
  8
0
 10
58.9236
 20
-33.8133
 11
59.0636
 21
-33.6067
  0
LINE
  8
0
 10
59.0636
 20
-33.6067
 11
59.4755
 21
-32.9
  0
LINE
  8
0
 10
59.4755
 20
-32.9
 11
59.6155
 21
-32.7001
  0
LINE
  8
0
 10
59.6155
 20
-32.7001
 11
59.788
 21
-32.5275
  0
LINE
  8
0
 10
59.788
 20
-32.5275
 11
59.9879
 21
-32.3876
  0
LINE
  8
0
 10
59.9879
 20
-32.3876
 11
60.2091
 21
-32.2844
  0
LINE
  8
0
 10
60.2091
 20
-32.2844
 11
60.4448
 21
-32.2213
  0
LINE
  8
0
 10
60.4448
 20
-32.2213
 11
60.6879
 21
-32.2
  0
LINE
  8
0
 10
60.6879
 20
-32.2
 11
77.774
 21
-32.2
  0
LINE
  8
0
 10
77.774
 20
-32.2
 11
78.64
 21
-31.6933
  0
LINE
  8
0
 10
78.64
 20
-31.6933
 11
78.64
 21
-32.2
  0
LINE
  8
0
 10
78.64
 20
-32.2
 11
91.2
 21
-32.2
  0
LINE
  8
0
 10
91.2
 20
-32.2
 11
91.3609
 21
-32.1935
  0
LINE
  8
0
 10
91.3609
 20
-32.1935
 11
91.6786
 21
-32.1419
  0
LINE
  8
0
 10
91.6786
 20
-32.1419
 11
91.9839
 21
-32.04
  0
LINE
  8
0
 10
91.9839
 20
-32.04
 11
92.2689
 21
-31.8904
  0
LINE
  8
0
 10
92.2689
 20
-31.8904
 11
92.5262
 21
-31.697
  0
LINE
  8
0
 10
92.5262
 20
-31.697
 11
92.7492
 21
-31.4649
  0
LINE
  8
0
 10
92.7492
 20
-31.4649
 11
92.9321
 21
-31.2
  0
LINE
  8
0
 10
92.9321
 20
-31.2
 11
93.07
 21
-30.9092
  0
LINE
  8
0
 10
93.07
 20
-30.9092
 11
93.1596
 21
-30.6001
  0
LINE
  8
0
 10
93.1596
 20
-30.6001
 11
93.1984
 21
-30.2805
  0
LINE
  8
0
 10
93.1984
 20
-30.2805
 11
93.1854
 21
-29.9589
  0
LINE
  8
0
 10
93.1854
 20
-29.9589
 11
93.121
 21
-29.6436
  0
LINE
  8
0
 10
93.121
 20
-29.6436
 11
93.0069
 21
-29.3426
  0
LINE
  8
0
 10
93.0069
 20
-29.3426
 11
92.846
 21
-29.0639
  0
LINE
  8
0
 10
92.846
 20
-29.0639
 11
92.6424
 21
-28.8146
  0
LINE
  8
0
 10
92.6424
 20
-28.8146
 11
92.4015
 21
-28.6011
  0
LINE
  8
0
 10
92.4015
 20
-28.6011
 11
92.1294
 21
-28.4291
  0
LINE
  8
0
 10
92.1294
 20
-28.4291
 11
91.8333
 21
-28.3029
  0
LINE
  8
0
 10
91.8333
 20
-28.3029
 11
91.5208
 21
-28.2259
  0
LINE
  8
0
 10
91.5208
 20
-28.2259
 11
91.2
 21
-28.2
  0
LINE
  8
0
 10
91.2
 20
-28.2
 11
90.8792
 21
-28.2259
  0
LINE
  8
0
 10
90.8792
 20
-28.2259
 11
90.5667
 21
-28.3029
  0
LINE
  8
0
 10
90.5667
 20
-28.3029
 11
90.2706
 21
-28.4291
  0
LINE
  8
0
 10
90.2706
 20
-28.4291
 11
90.0556
 21
-28.5531
  0
LINE
  8
0
 10
90.0556
 20
-28.5531
 11
87.5901
 21
-30.2733
  0
LINE
  8
0
 10
87.5901
 20
-30.2733
 11
81.0235
 21
-30.2736
  0
LINE
  8
0
 10
81.0235
 20
-30.2736
 11
80.8499
 21
-30.2648
  0
LINE
  8
0
 10
80.8499
 20
-30.2648
 11
80.6815
 21
-30.2197
  0
LINE
  8
0
 10
80.6815
 20
-30.2197
 11
80.5235
 21
-30.146
  0
LINE
  8
0
 10
80.5235
 20
-30.146
 11
80.3807
 21
-30.046
  0
LINE
  8
0
 10
80.3807
 20
-30.046
 11
80.2575
 21
-29.9228
  0
LINE
  8
0
 10
80.2575
 20
-29.9228
 11
80.1575
 21
-29.78
  0
LINE
  8
0
 10
80.1575
 20
-29.78
 11
80.0838
 21
-29.622
  0
LINE
  8
0
 10
80.0838
 20
-29.622
 11
80.0387
 21
-29.4536
  0
LINE
  8
0
 10
80.0387
 20
-29.4536
 11
80.0235
 21
-29.28
  0
LINE
  8
0
 10
80.0235
 20
-29.28
 11
80.0387
 21
-29.1064
  0
LINE
  8
0
 10
80.0387
 20
-29.1064
 11
84.113
 21
-5.99341
  0
LINE
  8
0
 10
84.113
 20
-5.99341
 11
88.24
 21
-5.99341
  0
LINE
  8
0
 10
88.24
 20
-5.99341
 11
88.24
 21
6
  0
LINE
  8
0
 10
88.24
 20
6
 11
84.113
 21
6
  0
LINE
  8
0
 10
84.113
 20
6
 11
80.0387
 21
29.1064
  0
LINE
  8
0
 10
80.0387
 20
29.1064
 11
80.0235
 21
29.2735
  0
LINE
  8
0
 10
80.0235
 20
29.2735
 11
80.0387
 21
29.4471
  0
LINE
  8
0
 10
80.0387
 20
29.4471
 11
80.0838
 21
29.6154
  0
LINE
  8
0
 10
80.0838
 20
29.6154
 11
80.1575
 21
29.7734
  0
LINE
  8
0
 10
80.1575
 20
29.7734
 11
80.2575
 21
29.9161
  0
LINE
  8
0
 10
80.2575
 20
29.9161
 11
80.3807
 21
30.0394
  0
LINE
  8
0
 10
80.3807
 20
30.0394
 11
80.5235
 21
30.1393
  0
LINE
  8
0
 10
80.5235
 20
30.1393
 11
80.6815
 21
30.213
  0
LINE
  8
0
 10
80.6815
 20
30.213
 11
80.8499
 21
30.2581
  0
LINE
  8
0
 10
80.8499
 20
30.2581
 11
81.0235
 21
30.2736
  0
LINE
  8
0
 10
81.0235
 20
30.2736
 11
87.5901
 21
30.2733
  0
LINE
  8
0
 10
87.5901
 20
30.2733
 11
90.0556
 21
28.5598
  0
LINE
  8
0
 10
90.0556
 20
28.5598
 11
90.2706
 21
28.4291
  0
LINE
  8
0
 10
90.2706
 20
28.4291
 11
90.5667
 21
28.3029
  0
LINE
  8
0
 10
90.5667
 20
28.3029
 11
90.8792
 21
28.2259
  0
LINE
  8
0
 10
90.8792
 20
28.2259
 11
91.2
 21
28.2
  0
LINE
  8
0
 10
91.2
 20
28.2
 11
91.5208
 21
28.2259
  0
LINE
  8
0
 10
91.5208
 20
28.2259
 11
91.8333
 21
28.3029
  0
LINE
  8
0
 10
91.8333
 20
28.3029
 11
92.1294
 21
28.4291
  0
LINE
  8
0
 10
92.1294
 20
28.4291
 11
92.4015
 21
28.6011
  0
LINE
  8
0
 10
92.4015
 20
28.6011
 11
92.6424
 21
28.8146
  0
LINE
  8
0
 10
92.6424
 20
28.8146
 11
92.846
 21
29.0639
  0
LINE
  8
0
 10
92.846
 20
29.0639
 11
93.0069
 21
29.3426
  0
LINE
  8
0
 10
93.0069
 20
29.3426
 11
93.121
 21
29.6436
  0
LINE
  8
0
 10
93.121
 20
29.6436
 11
93.1854
 21
29.9589
  0
LINE
  8
0
 10
93.1854
 20
29.9589
 11
93.1984
 21
30.2805
  0
LINE
  8
0
 10
93.1984
 20
30.2805
 11
93.1596
 21
30.6001
  0
LINE
  8
0
 10
93.1596
 20
30.6001
 11
93.07
 21
30.9092
  0
LINE
  8
0
 10
93.07
 20
30.9092
 11
92.9321
 21
31.2
  0
LINE
  8
0
 10
92.9321
 20
31.2
 11
92.7492
 21
31.4649
  0
LINE
  8
0
 10
92.7492
 20
31.4649
 11
92.5262
 21
31.697
  0
LINE
  8
0
 10
92.5262
 20
31.697
 11
92.2689
 21
31.8904
  0
LINE
  8
0
 10
92.2689
 20
31.8904
 11
91.9839
 21
32.04
  0
LINE
  8
0
 10
91.9839
 20
32.04
 11
91.6786
 21
32.1419
  0
LINE
  8
0
 10
91.6786
 20
32.1419
 11
91.3609
 21
32.1935
  0
LINE
  8
0
 10
91.3609
 20
32.1935
 11
91.2
 21
32.2
  0
LINE
  8
0
 10
91.2
 20
32.2
 11
78.64
 21
32.2
  0
LINE
  8
0
 10
78.64
 20
32.2
 11
78.64
 21
31.7
  0
LINE
  8
0
 10
78.64
 20
31.7
 11
77.774
 21
32.2
  0
LINE
  8
0
 10
77.774
 20
32.2
 11
60.6879
 21
32.2
  0
LINE
  8
0
 10
60.6879
 20
32.2
 11
60.4448
 21
32.2213
  0
LINE
  8
0
 10
60.4448
 20
32.2213
 11
60.2091
 21
32.2844
  0
LINE
  8
0
 10
60.2091
 20
32.2844
 11
59.9879
 21
32.3876
  0
LINE
  8
0
 10
59.9879
 20
32.3876
 11
59.788
 21
32.5275
  0
LINE
  8
0
 10
59.788
 20
32.5275
 11
59.6155
 21
32.7001
  0
LINE
  8
0
 10
59.6155
 20
32.7001
 11
59.4755
 21
32.9
  0
LINE
  8
0
 10
59.4755
 20
32.9
 11
59.0636
 21
33.6134
  0
LINE
  8
0
 10
59.0636
 20
33.6134
 11
58.9236
 21
33.8067
  0
LINE
  8
0
 10
58.9236
 20
33.8067
 11
58.7511
 21
33.9792
  0
LINE
  8
0
 10
58.7511
 20
33.9792
 11
58.5512
 21
34.1192
  0
LINE
  8
0
 10
58.5512
 20
34.1192
 11
58.33
 21
34.2223
  0
LINE
  8
0
 10
58.33
 20
34.2223
 11
58.0943
 21
34.2854
  0
LINE
  8
0
 10
58.0943
 20
34.2854
 11
57.8512
 21
34.3134
  0
LINE
  8
0
 10
57.8512
 20
34.3134
 11
56.7888
 21
34.3134
  0
LINE
  8
0
 10
56.7888
 20
34.3134
 11
56.5457
 21
34.2854
  0
LINE
  8
0
 10
56.5457
 20
34.2854
 11
56.31
 21
34.2223
  0
LINE
  8
0
 10
56.31
 20
34.2223
 11
56.0888
 21
34.1192
  0
LINE
  8
0
 10
56.0888
 20
34.1192
 11
55.8889
 21
33.9792
  0
LINE
  8
0
 10
55.8889
 20
33.9792
 11
55.7164
 21
33.8067
  0
LINE
  8
0
 10
55.7164
 20
33.8067
 11
55.5764
 21
33.6134
  0
LINE
  8
0
 10
55.5764
 20
33.6134
 11
55.1645
 21
32.9
  0
LINE
  8
0
 10
55.1645
 20
32.9
 11
55.0245
 21
32.7001
  0
LINE
  8
0
 10
55.0245
 20
32.7001
 11
54.852
 21
32.5275
  0
LINE
  8
0
 10
54.852
 20
32.5275
 11
54.6521
 21
32.3876
  0
LINE
  8
0
 10
54.6521
 20
32.3876
 11
54.4309
 21
32.2844
  0
LINE
  8
0
 10
54.4309
 20
32.2844
 11
54.1952
 21
32.2213
  0
LINE
  8
0
 10
54.1952
 20
32.2213
 11
53.9521
 21
32.2
  0
LINE
  8
0
 10
53.9521
 20
32.2
 11
32.6879
 21
32.2
  0
LINE
  8
0
 10
32.6879
 20
32.2
 11
32.4448
 21
32.2213
  0
LINE
  8
0
 10
32.4448
 20
32.2213
 11
32.2091
 21
32.2844
  0
LINE
  8
0
 10
32.2091
 20
32.2844
 11
31.9879
 21
32.3876
  0
LINE
  8
0
 10
31.9879
 20
32.3876
 11
31.788
 21
32.5275
  0
LINE
  8
0
 10
31.788
 20
32.5275
 11
31.6155
 21
32.7001
  0
LINE
  8
0
 10
31.6155
 20
32.7001
 11
31.4755
 21
32.9
  0
LINE
  8
0
 10
31.4755
 20
32.9
 11
31.0636
 21
33.6134
  0
LINE
  8
0
 10
31.0636
 20
33.6134
 11
30.9236
 21
33.8067
  0
LINE
  8
0
 10
30.9236
 20
33.8067
 11
30.7511
 21
33.9792
  0
LINE
  8
0
 10
30.7511
 20
33.9792
 11
30.5512
 21
34.1192
  0
LINE
  8
0
 10
30.5512
 20
34.1192
 11
30.33
 21
34.2223
  0
LINE
  8
0
 10
30.33
 20
34.2223
 11
30.0943
 21
34.2854
  0
LINE
  8
0
 10
30.0943
 20
34.2854
 11
29.8512
 21
34.3134
  0
LINE
  8
0
 10
29.8512
 20
34.3134
 11
28.7888
 21
34.3134
  0
LINE
  8
0
 10
28.7888
 20
34.3134
 11
28.5457
 21
34.2854
  0
LINE
  8
0
 10
28.5457
 20
34.2854
 11
28.31
 21
34.2223
  0
LINE
  8
0
 10
28.31
 20
34.2223
 11
28.0888
 21
34.1192
  0
LINE
  8
0
 10
28.0888
 20
34.1192
 11
27.8889
 21
33.9792
  0
LINE
  8
0
 10
27.8889
 20
33.9792
 11
27.7164
 21
33.8067
  0
LINE
  8
0
 10
27.7164
 20
33.8067
 11
27.5764
 21
33.6134
  0
LINE
  8
0
 10
27.5764
 20
33.6134
 11
27.1645
 21
32.9
  0
LINE
  8
0
 10
27.1645
 20
32.9
 11
27.0245
 21
32.7001
  0
LINE
  8
0
 10
27.0245
 20
32.7001
 11
26.852
 21
32.5275
  0
LINE
  8
0
 10
26.852
 20
32.5275
 11
26.6521
 21
32.3876
  0
LINE
  8
0
 10
26.6521
 20
32.3876
 11
26.4309
 21
32.2844
  0
LINE
  8
0
 10
26.4309
 20
32.2844
 11
26.1952
 21
32.2213
  0
LINE
  8
0
 10
26.1952
 20
32.2213
 11
25.9521
 21
32.2
  0
LINE
  8
0
 10
25.9521
 20
32.2
 11
8.86602
 21
32.2
  0
LINE
  8
0
 10
8.86602
 20
32.2
 11
8
 21
31.7
  0
LINE
  8
0
 10
8
 20
31.7
 11
7.13397
 21
32.2
  0
LINE
  8
0
 10
7.13397
 20
32.2
 11
0
 21
32.2
  0
LINE
  8
0
 10
0
 20
32.2
 11
0
 21
30.28
  0
LINE
  8
0
 10
0
 20
30.28
 11
5.99396
 21
30.2736
  0
LINE
  8
0
 10
5.99396
 20
30.2736
 11
7.17115
 21
29.2855
  0
LINE
  8
0
 10
7.17115
 20
29.2855
 11
0
 21
20.746
  0
LINE
  8
0
 10
0
 20
20.746
 11
0
 21
-20.746
  0
LINE
  8
0
 10
0
 20
-20.746
 11
7.17115
 21
-29.2922
  0
LINE
  8
0
 10
7.17115
 20
-29.2922
 11
5.99396
 21
-30.2736
  0
LINE
  8
0
 10
5.99396
 20
-30.2736
 11
0
 21
-30.2733
  0
LINE
  8
0
 10
0
 20
-30.2733
 11
0
 21
-32.2
  0
ENDSEC
  0
SECTION
  2
OBJECTS
  0
DICTIONARY
  0
ENDSEC
  0
EOF
