  0
SECTION
  2
HEADER
  9
$ACADVER
  1
AC1009
  9
$INSBASE
 10
0.0
 20
0.0
 30
0.0
  9
$EXTMIN
 10
0.0
 20
0.0
 30
0.0
  9
$EXTMAX
 10
0.0
 20
0.0
 30
0.0
  0
ENDSEC
  0
SECTION
  2
TABLES
  0
TABLE
  2
VPORT
 70
0
  0
ENDTAB
  0
TABLE
  2
LTYPE
 70
1
  0
LTYPE
  2
CONTINUOUS
 70
0
  3
Solid line
 72
65
 73
0
 40
0.0
  0
ENDTAB
  0
TABLE
  2
LAYER
 70
1
  0
LAYER
  2
0
 70
64
 62
7
  6
continuous
  0
ENDTAB
  0
TABLE
  2
STYLE
 70
1
  0
STYLE
  2
STANDARD
 70
0
 40
0
 41
1.0
 50
0.0
 71
0
 42
1
 3
ARIAL.TTF
 4

  0
ENDTAB
  0
TABLE
  2
VIEW
 70
0
  0
ENDTAB
  0
ENDSEC
  0
SECTION
  2
BLOCKS
  0
BLOCK
  8
0
  2
PAD001
 70
0
 10
0.0
 20
0.0
 30
0.0
  3
PAD001
  0
LINE
  8
0
 62
0
 10
-1.7763568394e-15
 20
324.5
 30
0.0
 11
-1.7763568394e-15
 21
298.0
 31
0.0
  0
ARC
  8
0
 62
0
 10
5.5
 20
298.0
 30
0.0
 40
5.5
 50
-180.0
 51
-90.0
  0
ARC
  8
0
 62
0
 10
5.5
 20
324.5
 30
0.0
 40
5.5
 50
90.0
 51
180.0
  0
LINE
  8
0
 62
0
 10
5.5
 20
292.5
 30
0.0
 11
8.0
 21
292.5
 31
0.0
  0
LINE
  8
0
 62
0
 10
66.0
 20
330.0
 30
0.0
 11
5.5
 21
330.0
 31
0.0
  0
ARC
  8
0
 62
0
 10
8.0
 20
282.5
 30
0.0
 40
10.0
 50
-90.0
 51
90.0
  0
LINE
  8
0
 62
0
 10
80.0
 20
316.0
 30
0.0
 11
66.0
 21
330.0
 31
0.0
  0
LINE
  8
0
 62
0
 10
5.5
 20
272.5
 30
0.0
 11
8.0
 21
272.5
 31
0.0
  0
LINE
  8
0
 62
0
 10
250.0
 20
316.0
 30
0.0
 11
80.0
 21
316.0
 31
0.0
  0
ARC
  8
0
 62
0
 10
5.5
 20
267.0
 30
0.0
 40
5.5
 50
90.0
 51
180.0
  0
LINE
  8
0
 62
0
 10
264.0
 20
330.0
 30
0.0
 11
250.0
 21
316.0
 31
0.0
  0
LINE
  8
0
 62
0
 10
-1.7763568394e-15
 20
267.0
 30
0.0
 11
-1.7763568394e-15
 21
175.5
 31
0.0
  0
LINE
  8
0
 62
0
 10
324.5
 20
330.0
 30
0.0
 11
264.0
 21
330.0
 31
0.0
  0
ARC
  8
0
 62
0
 10
5.5
 20
175.5
 30
0.0
 40
5.5
 50
-180.0
 51
-89.9999999996
  0
ARC
  8
0
 62
0
 10
324.5
 20
324.5
 30
0.0
 40
5.5
 50
0.0
 51
90.0
  0
LINE
  8
0
 62
0
 10
5.50000000004
 20
170.0
 30
0.0
 11
5.9999999999
 21
170.0
 31
0.0
  0
LINE
  8
0
 62
0
 10
330.0
 20
264.0
 30
0.0
 11
330.0
 21
324.5
 31
0.0
  0
ARC
  8
0
 62
0
 10
5.99999999997
 20
160.0
 30
0.0
 40
10.0
 50
-90.0
 51
90.0000000004
  0
LINE
  8
0
 62
0
 10
316.0
 20
250.0
 30
0.0
 11
330.0
 21
264.0
 31
0.0
  0
LINE
  8
0
 62
0
 10
5.5
 20
150.0
 30
0.0
 11
5.99999999997
 21
150.0
 31
0.0
  0
LINE
  8
0
 62
0
 10
316.0
 20
80.0
 30
0.0
 11
316.0
 21
250.0
 31
0.0
  0
ARC
  8
0
 62
0
 10
5.5
 20
144.5
 30
0.0
 40
5.5
 50
90.0
 51
-180.0
  0
LINE
  8
0
 62
0
 10
330.0
 20
66.0
 30
0.0
 11
316.0
 21
80.0
 31
0.0
  0
LINE
  8
0
 62
0
 10
-1.7763568394e-15
 20
144.5
 30
0.0
 11
-1.7763568394e-15
 21
5.5
 31
0.0
  0
LINE
  8
0
 62
0
 10
330.0
 20
5.5
 30
0.0
 11
330.0
 21
66.0
 31
0.0
  0
ARC
  8
0
 62
0
 10
5.5
 20
5.5
 30
0.0
 40
5.5
 50
180.0
 51
-90.0
  0
ARC
  8
0
 62
0
 10
324.5
 20
5.5
 30
0.0
 40
5.5
 50
-90.0
 51
0.0
  0
LINE
  8
0
 62
0
 10
5.5
 20
0.0
 30
0.0
 11
66.0
 21
0.0
 31
0.0
  0
LINE
  8
0
 62
0
 10
264.0
 20
0.0
 30
0.0
 11
324.5
 21
0.0
 31
0.0
  0
LINE
  8
0
 62
0
 10
80.0
 20
14.0
 30
0.0
 11
66.0
 21
5.3290705182e-15
 31
0.0
  0
LINE
  8
0
 62
0
 10
264.0
 20
0.0
 30
0.0
 11
250.0
 21
14.0
 31
0.0
  0
LINE
  8
0
 62
0
 10
250.0
 20
14.0
 30
0.0
 11
80.0
 21
14.0
 31
0.0
  0
CIRCLE
  8
0
 62
0
 10
3.5
 20
11.0
 30
0.0
 40
3.0
  0
CIRCLE
  8
0
 62
0
 10
11.0
 20
11.0
 30
0.0
 40
3.0
  0
CIRCLE
  8
0
 62
0
 10
8.0
 20
30.0
 30
0.0
 40
3.0
  0
CIRCLE
  8
0
 62
0
 10
8.0
 20
140.0
 30
0.0
 40
3.0
  0
CIRCLE
  8
0
 62
0
 10
72.0
 20
126.0
 30
0.0
 40
3.0
  0
CIRCLE
  8
0
 62
0
 10
72.0
 20
101.0
 30
0.0
 40
3.0
  0
CIRCLE
  8
0
 62
0
 10
144.5
 20
190.5
 30
0.0
 40
3.0
  0
ARC
  8
0
 62
0
 10
14.0
 20
190.0
 30
0.0
 40
2.0
 50
-180.0
 51
-0.0
  0
LINE
  8
0
 62
0
 10
12.0
 20
190.0
 30
0.0
 11
12.0
 21
196.0
 31
0.0
  0
LINE
  8
0
 62
0
 10
16.0
 20
190.0
 30
0.0
 11
16.0
 21
196.0
 31
0.0
  0
ARC
  8
0
 62
0
 10
14.0
 20
196.0
 30
0.0
 40
2.0
 50
-0.0
 51
-180.0
  0
CIRCLE
  8
0
 62
0
 10
144.5
 20
138.5
 30
0.0
 40
3.0
  0
CIRCLE
  8
0
 62
0
 10
108.0
 20
160.0
 30
0.0
 40
10.0
  0
CIRCLE
  8
0
 62
0
 10
108.0
 20
101.0
 30
0.0
 40
3.0
  0
CIRCLE
  8
0
 62
0
 10
140.0
 20
99.5
 30
0.0
 40
3.0
  0
CIRCLE
  8
0
 62
0
 10
108.0
 20
126.0
 30
0.0
 40
3.0
  0
ARC
  8
0
 62
0
 10
6.0
 20
190.0
 30
0.0
 40
2.0
 50
-180.0
 51
-0.0
  0
LINE
  8
0
 62
0
 10
4.0
 20
190.0
 30
0.0
 11
4.0
 21
196.0
 31
0.0
  0
LINE
  8
0
 62
0
 10
8.0
 20
190.0
 30
0.0
 11
8.0
 21
196.0
 31
0.0
  0
ARC
  8
0
 62
0
 10
6.0
 20
196.0
 30
0.0
 40
2.0
 50
-0.0
 51
-180.0
  0
CIRCLE
  8
0
 62
0
 10
150.5
 20
164.5
 30
0.0
 40
3.0
  0
CIRCLE
  8
0
 62
0
 10
11.0
 20
3.5
 30
0.0
 40
3.0
  0
CIRCLE
  8
0
 62
0
 10
319.0
 20
3.5
 30
0.0
 40
3.0
  0
CIRCLE
  8
0
 62
0
 10
319.0
 20
11.0
 30
0.0
 40
3.0
  0
CIRCLE
  8
0
 62
0
 10
222.0
 20
101.0
 30
0.0
 40
3.0
  0
CIRCLE
  8
0
 62
0
 10
258.0
 20
101.0
 30
0.0
 40
3.0
  0
CIRCLE
  8
0
 62
0
 10
222.0
 20
126.0
 30
0.0
 40
3.0
  0
CIRCLE
  8
0
 62
0
 10
258.0
 20
126.0
 30
0.0
 40
3.0
  0
CIRCLE
  8
0
 62
0
 10
8.0
 20
265.0
 30
0.0
 40
3.0
  0
CIRCLE
  8
0
 62
0
 10
108.0
 20
204.0
 30
0.0
 40
3.0
  0
CIRCLE
  8
0
 62
0
 10
72.0
 20
204.0
 30
0.0
 40
3.0
  0
CIRCLE
  8
0
 62
0
 10
72.0
 20
229.0
 30
0.0
 40
3.0
  0
CIRCLE
  8
0
 62
0
 10
108.0
 20
229.0
 30
0.0
 40
3.0
  0
CIRCLE
  8
0
 62
0
 10
222.0
 20
229.0
 30
0.0
 40
3.0
  0
CIRCLE
  8
0
 62
0
 10
222.0
 20
204.0
 30
0.0
 40
3.0
  0
CIRCLE
  8
0
 62
0
 10
258.0
 20
229.0
 30
0.0
 40
3.0
  0
CIRCLE
  8
0
 62
0
 10
258.0
 20
204.0
 30
0.0
 40
3.0
  0
CIRCLE
  8
0
 62
0
 10
319.0
 20
319.0
 30
0.0
 40
3.0
  0
CIRCLE
  8
0
 62
0
 10
3.5
 20
319.0
 30
0.0
 40
3.0
  0
CIRCLE
  8
0
 62
0
 10
11.0
 20
319.0
 30
0.0
 40
3.0
  0
CIRCLE
  8
0
 62
0
 10
8.0
 20
300.0
 30
0.0
 40
3.0
  0
CIRCLE
  8
0
 62
0
 10
326.5
 20
319.0
 30
0.0
 40
3.0
  0
CIRCLE
  8
0
 62
0
 10
326.5
 20
11.0
 30
0.0
 40
3.0
  0
CIRCLE
  8
0
 62
0
 10
11.0
 20
326.5
 30
0.0
 40
3.0
  0
CIRCLE
  8
0
 62
0
 10
319.0
 20
326.5
 30
0.0
 40
3.0
  0
CIRCLE
  8
0
 62
0
 10
3.5
 20
11.0
 30
0.0
 40
1.5
  0
CIRCLE
  8
0
 62
0
 10
11.0
 20
11.0
 30
0.0
 40
1.5
  0
CIRCLE
  8
0
 62
0
 10
8.0
 20
30.0
 30
0.0
 40
1.5
  0
CIRCLE
  8
0
 62
0
 10
8.0
 20
140.0
 30
0.0
 40
1.5
  0
CIRCLE
  8
0
 62
0
 10
72.0
 20
126.0
 30
0.0
 40
1.5
  0
CIRCLE
  8
0
 62
0
 10
72.0
 20
101.0
 30
0.0
 40
1.5
  0
CIRCLE
  8
0
 62
0
 10
144.5
 20
190.5
 30
0.0
 40
1.5
  0
CIRCLE
  8
0
 62
0
 10
144.5
 20
138.5
 30
0.0
 40
1.5
  0
CIRCLE
  8
0
 62
0
 10
108.0
 20
101.0
 30
0.0
 40
1.5
  0
CIRCLE
  8
0
 62
0
 10
140.0
 20
99.5
 30
0.0
 40
1.5
  0
CIRCLE
  8
0
 62
0
 10
108.0
 20
126.0
 30
0.0
 40
1.5
  0
CIRCLE
  8
0
 62
0
 10
150.5
 20
164.5
 30
0.0
 40
1.5
  0
CIRCLE
  8
0
 62
0
 10
11.0
 20
3.5
 30
0.0
 40
1.5
  0
CIRCLE
  8
0
 62
0
 10
319.0
 20
3.5
 30
0.0
 40
1.5
  0
CIRCLE
  8
0
 62
0
 10
319.0
 20
11.0
 30
0.0
 40
1.5
  0
CIRCLE
  8
0
 62
0
 10
222.0
 20
101.0
 30
0.0
 40
1.5
  0
CIRCLE
  8
0
 62
0
 10
258.0
 20
101.0
 30
0.0
 40
1.5
  0
CIRCLE
  8
0
 62
0
 10
222.0
 20
126.0
 30
0.0
 40
1.5
  0
CIRCLE
  8
0
 62
0
 10
258.0
 20
126.0
 30
0.0
 40
1.5
  0
CIRCLE
  8
0
 62
0
 10
8.0
 20
265.0
 30
0.0
 40
1.5
  0
CIRCLE
  8
0
 62
0
 10
108.0
 20
204.0
 30
0.0
 40
1.5
  0
CIRCLE
  8
0
 62
0
 10
72.0
 20
204.0
 30
0.0
 40
1.5
  0
CIRCLE
  8
0
 62
0
 10
72.0
 20
229.0
 30
0.0
 40
1.5
  0
CIRCLE
  8
0
 62
0
 10
108.0
 20
229.0
 30
0.0
 40
1.5
  0
CIRCLE
  8
0
 62
0
 10
222.0
 20
229.0
 30
0.0
 40
1.5
  0
CIRCLE
  8
0
 62
0
 10
222.0
 20
204.0
 30
0.0
 40
1.5
  0
CIRCLE
  8
0
 62
0
 10
258.0
 20
229.0
 30
0.0
 40
1.5
  0
CIRCLE
  8
0
 62
0
 10
258.0
 20
204.0
 30
0.0
 40
1.5
  0
CIRCLE
  8
0
 62
0
 10
319.0
 20
319.0
 30
0.0
 40
1.5
  0
CIRCLE
  8
0
 62
0
 10
3.5
 20
319.0
 30
0.0
 40
1.5
  0
CIRCLE
  8
0
 62
0
 10
11.0
 20
319.0
 30
0.0
 40
1.5
  0
CIRCLE
  8
0
 62
0
 10
8.0
 20
300.0
 30
0.0
 40
1.5
  0
CIRCLE
  8
0
 62
0
 10
326.5
 20
319.0
 30
0.0
 40
1.5
  0
CIRCLE
  8
0
 62
0
 10
326.5
 20
11.0
 30
0.0
 40
1.5
  0
CIRCLE
  8
0
 62
0
 10
11.0
 20
326.5
 30
0.0
 40
1.5
  0
CIRCLE
  8
0
 62
0
 10
319.0
 20
326.5
 30
0.0
 40
1.5
  0
CIRCLE
  8
0
 62
0
 10
3.5
 20
11.0
 30
0.0
 40
1.25
  0
CIRCLE
  8
0
 62
0
 10
11.0
 20
11.0
 30
0.0
 40
1.25
  0
CIRCLE
  8
0
 62
0
 10
8.0
 20
30.0
 30
0.0
 40
1.25
  0
CIRCLE
  8
0
 62
0
 10
8.0
 20
140.0
 30
0.0
 40
1.25
  0
CIRCLE
  8
0
 62
0
 10
72.0
 20
126.0
 30
0.0
 40
1.25
  0
CIRCLE
  8
0
 62
0
 10
72.0
 20
101.0
 30
0.0
 40
1.25
  0
CIRCLE
  8
0
 62
0
 10
144.5
 20
190.5
 30
0.0
 40
1.25
  0
CIRCLE
  8
0
 62
0
 10
144.5
 20
138.5
 30
0.0
 40
1.25
  0
CIRCLE
  8
0
 62
0
 10
108.0
 20
101.0
 30
0.0
 40
1.25
  0
CIRCLE
  8
0
 62
0
 10
140.0
 20
99.5
 30
0.0
 40
1.25
  0
CIRCLE
  8
0
 62
0
 10
108.0
 20
126.0
 30
0.0
 40
1.25
  0
CIRCLE
  8
0
 62
0
 10
150.5
 20
164.5
 30
0.0
 40
1.25
  0
CIRCLE
  8
0
 62
0
 10
11.0
 20
3.5
 30
0.0
 40
1.25
  0
CIRCLE
  8
0
 62
0
 10
319.0
 20
3.5
 30
0.0
 40
1.25
  0
CIRCLE
  8
0
 62
0
 10
319.0
 20
11.0
 30
0.0
 40
1.25
  0
CIRCLE
  8
0
 62
0
 10
222.0
 20
101.0
 30
0.0
 40
1.25
  0
CIRCLE
  8
0
 62
0
 10
258.0
 20
101.0
 30
0.0
 40
1.25
  0
CIRCLE
  8
0
 62
0
 10
222.0
 20
126.0
 30
0.0
 40
1.25
  0
CIRCLE
  8
0
 62
0
 10
258.0
 20
126.0
 30
0.0
 40
1.25
  0
CIRCLE
  8
0
 62
0
 10
8.0
 20
265.0
 30
0.0
 40
1.25
  0
CIRCLE
  8
0
 62
0
 10
108.0
 20
204.0
 30
0.0
 40
1.25
  0
CIRCLE
  8
0
 62
0
 10
72.0
 20
204.0
 30
0.0
 40
1.25
  0
CIRCLE
  8
0
 62
0
 10
72.0
 20
229.0
 30
0.0
 40
1.25
  0
CIRCLE
  8
0
 62
0
 10
108.0
 20
229.0
 30
0.0
 40
1.25
  0
CIRCLE
  8
0
 62
0
 10
222.0
 20
229.0
 30
0.0
 40
1.25
  0
CIRCLE
  8
0
 62
0
 10
222.0
 20
204.0
 30
0.0
 40
1.25
  0
CIRCLE
  8
0
 62
0
 10
258.0
 20
229.0
 30
0.0
 40
1.25
  0
CIRCLE
  8
0
 62
0
 10
258.0
 20
204.0
 30
0.0
 40
1.25
  0
CIRCLE
  8
0
 62
0
 10
319.0
 20
319.0
 30
0.0
 40
1.25
  0
CIRCLE
  8
0
 62
0
 10
3.5
 20
319.0
 30
0.0
 40
1.25
  0
CIRCLE
  8
0
 62
0
 10
11.0
 20
319.0
 30
0.0
 40
1.25
  0
CIRCLE
  8
0
 62
0
 10
8.0
 20
300.0
 30
0.0
 40
1.25
  0
CIRCLE
  8
0
 62
0
 10
326.5
 20
319.0
 30
0.0
 40
1.25
  0
CIRCLE
  8
0
 62
0
 10
326.5
 20
11.0
 30
0.0
 40
1.25
  0
CIRCLE
  8
0
 62
0
 10
11.0
 20
326.5
 30
0.0
 40
1.25
  0
CIRCLE
  8
0
 62
0
 10
319.0
 20
326.5
 30
0.0
 40
1.25
  0
ENDBLK
  0
ENDSEC
  0
SECTION
  2
ENTITIES
  0
INSERT
  2
PAD001
  8
0
 10
0.0
 20
0.0
 30
0.0
  0
ENDSEC
  0
EOF
