  0
SECTION
  2
BLOCKS
  0
ENDSEC
  0
SECTION
  2
ENTITIES
  0
LINE
  8
0
 10
279
 20
0
 11
278.449
 21
17.5186
  0
LINE
  8
0
 10
278.449
 20
17.5186
 11
276.8
 21
34.968
  0
LINE
  8
0
 10
276.8
 20
34.968
 11
274.058
 21
52.2794
  0
LINE
  8
0
 10
274.058
 20
52.2794
 11
270.235
 21
69.3845
  0
LINE
  8
0
 10
270.235
 20
69.3845
 11
265.345
 21
86.2157
  0
LINE
  8
0
 10
265.345
 20
86.2157
 11
259.408
 21
102.707
  0
LINE
  8
0
 10
259.408
 20
102.707
 11
252.447
 21
118.792
  0
LINE
  8
0
 10
252.447
 20
118.792
 11
244.49
 21
134.409
  0
LINE
  8
0
 10
244.49
 20
134.409
 11
235.567
 21
149.496
  0
LINE
  8
0
 10
235.567
 20
149.496
 11
225.716
 21
163.992
  0
LINE
  8
0
 10
225.716
 20
163.992
 11
214.973
 21
177.841
  0
LINE
  8
0
 10
214.973
 20
177.841
 11
203.382
 21
190.989
  0
LINE
  8
0
 10
203.382
 20
190.989
 11
190.989
 21
203.382
  0
LINE
  8
0
 10
190.989
 20
203.382
 11
177.841
 21
214.973
  0
LINE
  8
0
 10
177.841
 20
214.973
 11
163.992
 21
225.716
  0
LINE
  8
0
 10
163.992
 20
225.716
 11
149.496
 21
235.567
  0
LINE
  8
0
 10
149.496
 20
235.567
 11
134.409
 21
244.49
  0
LINE
  8
0
 10
134.409
 20
244.49
 11
118.792
 21
252.447
  0
LINE
  8
0
 10
118.792
 20
252.447
 11
102.707
 21
259.408
  0
LINE
  8
0
 10
102.707
 20
259.408
 11
86.2157
 21
265.345
  0
LINE
  8
0
 10
86.2157
 20
265.345
 11
69.3845
 21
270.235
  0
LINE
  8
0
 10
69.3845
 20
270.235
 11
52.2794
 21
274.058
  0
LINE
  8
0
 10
52.2794
 20
274.058
 11
34.968
 21
276.8
  0
LINE
  8
0
 10
34.968
 20
276.8
 11
17.5186
 21
278.449
  0
LINE
  8
0
 10
17.5186
 20
278.449
 11
1.70833e-14
 21
279
  0
LINE
  8
0
 10
1.70833e-14
 20
279
 11
-17.5186
 21
278.449
  0
LINE
  8
0
 10
-17.5186
 20
278.449
 11
-34.968
 21
276.8
  0
LINE
  8
0
 10
-34.968
 20
276.8
 11
-52.2794
 21
274.058
  0
LINE
  8
0
 10
-52.2794
 20
274.058
 11
-69.3845
 21
270.235
  0
LINE
  8
0
 10
-69.3845
 20
270.235
 11
-86.2157
 21
265.345
  0
LINE
  8
0
 10
-86.2157
 20
265.345
 11
-102.707
 21
259.408
  0
LINE
  8
0
 10
-102.707
 20
259.408
 11
-118.792
 21
252.447
  0
LINE
  8
0
 10
-118.792
 20
252.447
 11
-134.409
 21
244.49
  0
LINE
  8
0
 10
-134.409
 20
244.49
 11
-149.496
 21
235.567
  0
LINE
  8
0
 10
-149.496
 20
235.567
 11
-163.992
 21
225.716
  0
LINE
  8
0
 10
-163.992
 20
225.716
 11
-177.841
 21
214.973
  0
LINE
  8
0
 10
-177.841
 20
214.973
 11
-190.989
 21
203.382
  0
LINE
  8
0
 10
-190.989
 20
203.382
 11
-203.382
 21
190.989
  0
LINE
  8
0
 10
-203.382
 20
190.989
 11
-214.973
 21
177.841
  0
LINE
  8
0
 10
-214.973
 20
177.841
 11
-225.716
 21
163.992
  0
LINE
  8
0
 10
-225.716
 20
163.992
 11
-235.567
 21
149.496
  0
LINE
  8
0
 10
-235.567
 20
149.496
 11
-244.49
 21
134.409
  0
LINE
  8
0
 10
-244.49
 20
134.409
 11
-252.447
 21
118.792
  0
LINE
  8
0
 10
-252.447
 20
118.792
 11
-259.408
 21
102.707
  0
LINE
  8
0
 10
-259.408
 20
102.707
 11
-265.345
 21
86.2157
  0
LINE
  8
0
 10
-265.345
 20
86.2157
 11
-270.235
 21
69.3845
  0
LINE
  8
0
 10
-270.235
 20
69.3845
 11
-274.058
 21
52.2794
  0
LINE
  8
0
 10
-274.058
 20
52.2794
 11
-276.8
 21
34.968
  0
LINE
  8
0
 10
-276.8
 20
34.968
 11
-278.449
 21
17.5186
  0
LINE
  8
0
 10
-278.449
 20
17.5186
 11
-279
 21
3.41665e-14
  0
LINE
  8
0
 10
-279
 20
3.41665e-14
 11
-278.449
 21
-17.5186
  0
LINE
  8
0
 10
-278.449
 20
-17.5186
 11
-276.8
 21
-34.968
  0
LINE
  8
0
 10
-276.8
 20
-34.968
 11
-274.058
 21
-52.2794
  0
LINE
  8
0
 10
-274.058
 20
-52.2794
 11
-270.235
 21
-69.3845
  0
LINE
  8
0
 10
-270.235
 20
-69.3845
 11
-265.345
 21
-86.2157
  0
LINE
  8
0
 10
-265.345
 20
-86.2157
 11
-259.408
 21
-102.707
  0
LINE
  8
0
 10
-259.408
 20
-102.707
 11
-252.447
 21
-118.792
  0
LINE
  8
0
 10
-252.447
 20
-118.792
 11
-244.49
 21
-134.409
  0
LINE
  8
0
 10
-244.49
 20
-134.409
 11
-235.567
 21
-149.496
  0
LINE
  8
0
 10
-235.567
 20
-149.496
 11
-225.716
 21
-163.992
  0
LINE
  8
0
 10
-225.716
 20
-163.992
 11
-214.973
 21
-177.841
  0
LINE
  8
0
 10
-214.973
 20
-177.841
 11
-203.382
 21
-190.989
  0
LINE
  8
0
 10
-203.382
 20
-190.989
 11
-190.989
 21
-203.382
  0
LINE
  8
0
 10
-190.989
 20
-203.382
 11
-177.841
 21
-214.973
  0
LINE
  8
0
 10
-177.841
 20
-214.973
 11
-163.992
 21
-225.716
  0
LINE
  8
0
 10
-163.992
 20
-225.716
 11
-149.496
 21
-235.567
  0
LINE
  8
0
 10
-149.496
 20
-235.567
 11
-134.409
 21
-244.49
  0
LINE
  8
0
 10
-134.409
 20
-244.49
 11
-118.792
 21
-252.447
  0
LINE
  8
0
 10
-118.792
 20
-252.447
 11
-102.707
 21
-259.408
  0
LINE
  8
0
 10
-102.707
 20
-259.408
 11
-86.2157
 21
-265.345
  0
LINE
  8
0
 10
-86.2157
 20
-265.345
 11
-69.3845
 21
-270.235
  0
LINE
  8
0
 10
-69.3845
 20
-270.235
 11
-52.2794
 21
-274.058
  0
LINE
  8
0
 10
-52.2794
 20
-274.058
 11
-34.968
 21
-276.8
  0
LINE
  8
0
 10
-34.968
 20
-276.8
 11
-17.5186
 21
-278.449
  0
LINE
  8
0
 10
-17.5186
 20
-278.449
 11
-5.12498e-14
 21
-279
  0
LINE
  8
0
 10
-5.12498e-14
 20
-279
 11
17.5186
 21
-278.449
  0
LINE
  8
0
 10
17.5186
 20
-278.449
 11
34.968
 21
-276.8
  0
LINE
  8
0
 10
34.968
 20
-276.8
 11
52.2794
 21
-274.058
  0
LINE
  8
0
 10
52.2794
 20
-274.058
 11
69.3845
 21
-270.235
  0
LINE
  8
0
 10
69.3845
 20
-270.235
 11
86.2157
 21
-265.345
  0
LINE
  8
0
 10
86.2157
 20
-265.345
 11
102.707
 21
-259.408
  0
LINE
  8
0
 10
102.707
 20
-259.408
 11
118.792
 21
-252.447
  0
LINE
  8
0
 10
118.792
 20
-252.447
 11
134.409
 21
-244.49
  0
LINE
  8
0
 10
134.409
 20
-244.49
 11
149.496
 21
-235.567
  0
LINE
  8
0
 10
149.496
 20
-235.567
 11
163.992
 21
-225.716
  0
LINE
  8
0
 10
163.992
 20
-225.716
 11
177.841
 21
-214.973
  0
LINE
  8
0
 10
177.841
 20
-214.973
 11
190.989
 21
-203.382
  0
LINE
  8
0
 10
190.989
 20
-203.382
 11
203.382
 21
-190.989
  0
LINE
  8
0
 10
203.382
 20
-190.989
 11
214.973
 21
-177.841
  0
LINE
  8
0
 10
214.973
 20
-177.841
 11
225.716
 21
-163.992
  0
LINE
  8
0
 10
225.716
 20
-163.992
 11
235.567
 21
-149.496
  0
LINE
  8
0
 10
235.567
 20
-149.496
 11
244.49
 21
-134.409
  0
LINE
  8
0
 10
244.49
 20
-134.409
 11
252.447
 21
-118.792
  0
LINE
  8
0
 10
252.447
 20
-118.792
 11
259.408
 21
-102.707
  0
LINE
  8
0
 10
259.408
 20
-102.707
 11
265.345
 21
-86.2157
  0
LINE
  8
0
 10
265.345
 20
-86.2157
 11
270.235
 21
-69.3845
  0
LINE
  8
0
 10
270.235
 20
-69.3845
 11
274.058
 21
-52.2794
  0
LINE
  8
0
 10
274.058
 20
-52.2794
 11
276.8
 21
-34.968
  0
LINE
  8
0
 10
276.8
 20
-34.968
 11
278.449
 21
-17.5186
  0
LINE
  8
0
 10
278.449
 20
-17.5186
 11
279
 21
0
  0
ENDSEC
  0
SECTION
  2
OBJECTS
  0
DICTIONARY
  0
ENDSEC
  0
EOF
