  0
SECTION
  2
BLOCKS
  0
ENDSEC
  0
SECTION
  2
ENTITIES
  0
LINE
  8
0
 10
274.968
 20
-244.201
 11
348.968
 21
-116.029
  0
LINE
  8
0
 10
348.968
 20
-116.029
 11
349.205
 21
-115.563
  0
LINE
  8
0
 10
349.205
 20
-115.563
 11
349.393
 21
-115.074
  0
LINE
  8
0
 10
349.393
 20
-115.074
 11
349.528
 21
-114.568
  0
LINE
  8
0
 10
349.528
 20
-114.568
 11
349.61
 21
-114.051
  0
LINE
  8
0
 10
349.61
 20
-114.051
 11
349.638
 21
-113.529
  0
LINE
  8
0
 10
349.638
 20
-113.529
 11
349.61
 21
-113.006
  0
LINE
  8
0
 10
349.61
 20
-113.006
 11
349.528
 21
-112.489
  0
LINE
  8
0
 10
349.528
 20
-112.489
 11
349.393
 21
-111.984
  0
LINE
  8
0
 10
349.393
 20
-111.984
 11
349.205
 21
-111.495
  0
LINE
  8
0
 10
349.205
 20
-111.495
 11
348.968
 21
-111.029
  0
LINE
  8
0
 10
348.968
 20
-111.029
 11
338.997
 21
-93.7583
  0
LINE
  8
0
 10
338.997
 20
-93.7583
 11
338.649
 21
-93.5577
  0
LINE
  8
0
 10
338.649
 20
-93.5577
 11
88.3013
 21
340.058
  0
LINE
  8
0
 10
88.3013
 20
340.058
 11
88.3013
 21
340.459
  0
LINE
  8
0
 10
88.3013
 20
340.459
 11
78.3301
 21
357.729
  0
LINE
  8
0
 10
78.3301
 20
357.729
 11
78.0451
 21
358.168
  0
LINE
  8
0
 10
78.0451
 20
358.168
 11
77.7157
 21
358.575
  0
LINE
  8
0
 10
77.7157
 20
358.575
 11
77.3456
 21
358.945
  0
LINE
  8
0
 10
77.3456
 20
358.945
 11
76.9389
 21
359.275
  0
LINE
  8
0
 10
76.9389
 20
359.275
 11
76.5
 21
359.56
  0
LINE
  8
0
 10
76.5
 20
359.56
 11
76.0337
 21
359.797
  0
LINE
  8
0
 10
76.0337
 20
359.797
 11
75.5451
 21
359.985
  0
LINE
  8
0
 10
75.5451
 20
359.985
 11
75.0396
 21
360.12
  0
LINE
  8
0
 10
75.0396
 20
360.12
 11
74.5226
 21
360.202
  0
LINE
  8
0
 10
74.5226
 20
360.202
 11
74
 21
360.229
  0
LINE
  8
0
 10
74
 20
360.229
 11
-74
 21
360.229
  0
LINE
  8
0
 10
-74
 20
360.229
 11
-74.5226
 21
360.202
  0
LINE
  8
0
 10
-74.5226
 20
360.202
 11
-75.0396
 21
360.12
  0
LINE
  8
0
 10
-75.0396
 20
360.12
 11
-75.5451
 21
359.985
  0
LINE
  8
0
 10
-75.5451
 20
359.985
 11
-76.0337
 21
359.797
  0
LINE
  8
0
 10
-76.0337
 20
359.797
 11
-76.5
 21
359.56
  0
LINE
  8
0
 10
-76.5
 20
359.56
 11
-76.9389
 21
359.275
  0
LINE
  8
0
 10
-76.9389
 20
359.275
 11
-77.3456
 21
358.945
  0
LINE
  8
0
 10
-77.3456
 20
358.945
 11
-77.7157
 21
358.575
  0
LINE
  8
0
 10
-77.7157
 20
358.575
 11
-78.0451
 21
358.168
  0
LINE
  8
0
 10
-78.0451
 20
358.168
 11
-78.3301
 21
357.729
  0
LINE
  8
0
 10
-78.3301
 20
357.729
 11
-88.3013
 21
340.459
  0
LINE
  8
0
 10
-88.3013
 20
340.459
 11
-88.3013
 21
340.058
  0
LINE
  8
0
 10
-88.3013
 20
340.058
 11
-338.649
 21
-93.5577
  0
LINE
  8
0
 10
-338.649
 20
-93.5577
 11
-338.997
 21
-93.7583
  0
LINE
  8
0
 10
-338.997
 20
-93.7583
 11
-348.968
 21
-111.029
  0
LINE
  8
0
 10
-348.968
 20
-111.029
 11
-349.205
 21
-111.495
  0
LINE
  8
0
 10
-349.205
 20
-111.495
 11
-349.393
 21
-111.984
  0
LINE
  8
0
 10
-349.393
 20
-111.984
 11
-349.528
 21
-112.489
  0
LINE
  8
0
 10
-349.528
 20
-112.489
 11
-349.61
 21
-113.006
  0
LINE
  8
0
 10
-349.61
 20
-113.006
 11
-349.638
 21
-113.529
  0
LINE
  8
0
 10
-349.638
 20
-113.529
 11
-349.61
 21
-114.051
  0
LINE
  8
0
 10
-349.61
 20
-114.051
 11
-349.528
 21
-114.568
  0
LINE
  8
0
 10
-349.528
 20
-114.568
 11
-349.393
 21
-115.074
  0
LINE
  8
0
 10
-349.393
 20
-115.074
 11
-349.205
 21
-115.563
  0
LINE
  8
0
 10
-349.205
 20
-115.563
 11
-348.968
 21
-116.029
  0
LINE
  8
0
 10
-348.968
 20
-116.029
 11
-274.968
 21
-244.201
  0
LINE
  8
0
 10
-274.968
 20
-244.201
 11
-274.683
 21
-244.64
  0
LINE
  8
0
 10
-274.683
 20
-244.64
 11
-274.353
 21
-245.046
  0
LINE
  8
0
 10
-274.353
 20
-245.046
 11
-273.983
 21
-245.416
  0
LINE
  8
0
 10
-273.983
 20
-245.416
 11
-273.577
 21
-245.746
  0
LINE
  8
0
 10
-273.577
 20
-245.746
 11
-273.138
 21
-246.031
  0
LINE
  8
0
 10
-273.138
 20
-246.031
 11
-272.671
 21
-246.268
  0
LINE
  8
0
 10
-272.671
 20
-246.268
 11
-272.183
 21
-246.456
  0
LINE
  8
0
 10
-272.183
 20
-246.456
 11
-271.677
 21
-246.591
  0
LINE
  8
0
 10
-271.677
 20
-246.591
 11
-271.16
 21
-246.673
  0
LINE
  8
0
 10
-271.16
 20
-246.673
 11
-270.638
 21
-246.701
  0
LINE
  8
0
 10
-270.638
 20
-246.701
 11
-250.695
 21
-246.701
  0
LINE
  8
0
 10
-250.695
 20
-246.701
 11
-250.348
 21
-246.5
  0
LINE
  8
0
 10
-250.348
 20
-246.5
 11
250.348
 21
-246.5
  0
LINE
  8
0
 10
250.348
 20
-246.5
 11
250.695
 21
-246.701
  0
LINE
  8
0
 10
250.695
 20
-246.701
 11
270.638
 21
-246.701
  0
LINE
  8
0
 10
270.638
 20
-246.701
 11
271.16
 21
-246.673
  0
LINE
  8
0
 10
271.16
 20
-246.673
 11
271.677
 21
-246.591
  0
LINE
  8
0
 10
271.677
 20
-246.591
 11
272.183
 21
-246.456
  0
LINE
  8
0
 10
272.183
 20
-246.456
 11
272.671
 21
-246.268
  0
LINE
  8
0
 10
272.671
 20
-246.268
 11
273.138
 21
-246.031
  0
LINE
  8
0
 10
273.138
 20
-246.031
 11
273.577
 21
-245.746
  0
LINE
  8
0
 10
273.577
 20
-245.746
 11
273.983
 21
-245.416
  0
LINE
  8
0
 10
273.983
 20
-245.416
 11
274.353
 21
-245.046
  0
LINE
  8
0
 10
274.353
 20
-245.046
 11
274.683
 21
-244.64
  0
LINE
  8
0
 10
274.683
 20
-244.64
 11
274.968
 21
-244.201
  0
LINE
  8
0
 10
-10.125
 20
334.875
 11
-10.125
 21
355.125
  0
LINE
  8
0
 10
-10.125
 20
355.125
 11
-4.49998
 21
355.125
  0
LINE
  8
0
 10
-4.49998
 20
355.125
 11
-2.7
 21
353.325
  0
LINE
  8
0
 10
-2.7
 20
353.325
 11
2.7
 21
353.325
  0
LINE
  8
0
 10
2.7
 20
353.325
 11
4.49998
 21
355.125
  0
LINE
  8
0
 10
4.49998
 20
355.125
 11
10.125
 21
355.125
  0
LINE
  8
0
 10
10.125
 20
355.125
 11
10.125
 21
334.875
  0
LINE
  8
0
 10
10.125
 20
334.875
 11
-10.125
 21
334.875
  0
LINE
  8
0
 10
-31.8031
 20
343.197
 11
-32.55
 21
345
  0
LINE
  8
0
 10
-32.55
 20
345
 11
-31.8031
 21
346.803
  0
LINE
  8
0
 10
-31.8031
 20
346.803
 11
-30
 21
347.55
  0
LINE
  8
0
 10
-30
 20
347.55
 11
-28.1969
 21
346.803
  0
LINE
  8
0
 10
-28.1969
 20
346.803
 11
-27.45
 21
345
  0
LINE
  8
0
 10
-27.45
 20
345
 11
-28.1969
 21
343.197
  0
LINE
  8
0
 10
-28.1969
 20
343.197
 11
-30
 21
342.45
  0
LINE
  8
0
 10
-30
 20
342.45
 11
-31.8031
 21
343.197
  0
LINE
  8
0
 10
-51.8031
 20
343.197
 11
-52.55
 21
345
  0
LINE
  8
0
 10
-52.55
 20
345
 11
-51.8031
 21
346.803
  0
LINE
  8
0
 10
-51.8031
 20
346.803
 11
-50
 21
347.55
  0
LINE
  8
0
 10
-50
 20
347.55
 11
-48.1969
 21
346.803
  0
LINE
  8
0
 10
-48.1969
 20
346.803
 11
-47.45
 21
345
  0
LINE
  8
0
 10
-47.45
 20
345
 11
-48.1969
 21
343.197
  0
LINE
  8
0
 10
-48.1969
 20
343.197
 11
-50
 21
342.45
  0
LINE
  8
0
 10
-50
 20
342.45
 11
-51.8031
 21
343.197
  0
LINE
  8
0
 10
28.1969
 20
343.197
 11
27.45
 21
345
  0
LINE
  8
0
 10
27.45
 20
345
 11
28.1969
 21
346.803
  0
LINE
  8
0
 10
28.1969
 20
346.803
 11
30
 21
347.55
  0
LINE
  8
0
 10
30
 20
347.55
 11
31.8031
 21
346.803
  0
LINE
  8
0
 10
31.8031
 20
346.803
 11
32.55
 21
345
  0
LINE
  8
0
 10
32.55
 20
345
 11
31.8031
 21
343.197
  0
LINE
  8
0
 10
31.8031
 20
343.197
 11
30
 21
342.45
  0
LINE
  8
0
 10
30
 20
342.45
 11
28.1969
 21
343.197
  0
LINE
  8
0
 10
52.55
 20
345
 11
51.8031
 21
343.197
  0
LINE
  8
0
 10
51.8031
 20
343.197
 11
50
 21
342.45
  0
LINE
  8
0
 10
50
 20
342.45
 11
48.1969
 21
343.197
  0
LINE
  8
0
 10
48.1969
 20
343.197
 11
47.45
 21
345
  0
LINE
  8
0
 10
47.45
 20
345
 11
48.1969
 21
346.803
  0
LINE
  8
0
 10
48.1969
 20
346.803
 11
50
 21
347.55
  0
LINE
  8
0
 10
50
 20
347.55
 11
51.8031
 21
346.803
  0
LINE
  8
0
 10
51.8031
 20
346.803
 11
52.55
 21
345
  0
LINE
  8
0
 10
90.1066
 20
311.831
 11
89.8519
 21
313.766
  0
LINE
  8
0
 10
89.8519
 20
313.766
 11
91.04
 21
315.314
  0
LINE
  8
0
 10
91.04
 20
315.314
 11
92.975
 21
315.569
  0
LINE
  8
0
 10
92.975
 20
315.569
 11
94.5234
 21
314.381
  0
LINE
  8
0
 10
94.5234
 20
314.381
 11
94.7781
 21
312.446
  0
LINE
  8
0
 10
94.7781
 20
312.446
 11
93.59
 21
310.897
  0
LINE
  8
0
 10
93.59
 20
310.897
 11
91.655
 21
310.643
  0
LINE
  8
0
 10
91.655
 20
310.643
 11
90.1066
 21
311.831
  0
LINE
  8
0
 10
-93.59
 20
310.897
 11
-94.7781
 21
312.446
  0
LINE
  8
0
 10
-94.7781
 20
312.446
 11
-94.5234
 21
314.381
  0
LINE
  8
0
 10
-94.5234
 20
314.381
 11
-92.975
 21
315.569
  0
LINE
  8
0
 10
-92.975
 20
315.569
 11
-91.04
 21
315.314
  0
LINE
  8
0
 10
-91.04
 20
315.314
 11
-89.8519
 21
313.766
  0
LINE
  8
0
 10
-89.8519
 20
313.766
 11
-90.1066
 21
311.831
  0
LINE
  8
0
 10
-90.1066
 20
311.831
 11
-91.655
 21
310.643
  0
LINE
  8
0
 10
-91.655
 20
310.643
 11
-93.59
 21
310.897
  0
LINE
  8
0
 10
-118.59
 20
267.596
 11
-119.778
 21
269.144
  0
LINE
  8
0
 10
-119.778
 20
269.144
 11
-119.523
 21
271.079
  0
LINE
  8
0
 10
-119.523
 20
271.079
 11
-117.975
 21
272.268
  0
LINE
  8
0
 10
-117.975
 20
272.268
 11
-116.04
 21
272.013
  0
LINE
  8
0
 10
-116.04
 20
272.013
 11
-114.852
 21
270.464
  0
LINE
  8
0
 10
-114.852
 20
270.464
 11
-115.107
 21
268.529
  0
LINE
  8
0
 10
-115.107
 20
268.529
 11
-116.655
 21
267.341
  0
LINE
  8
0
 10
-116.655
 20
267.341
 11
-118.59
 21
267.596
  0
LINE
  8
0
 10
115.107
 20
268.529
 11
114.852
 21
270.464
  0
LINE
  8
0
 10
114.852
 20
270.464
 11
116.04
 21
272.013
  0
LINE
  8
0
 10
116.04
 20
272.013
 11
117.975
 21
272.268
  0
LINE
  8
0
 10
117.975
 20
272.268
 11
119.523
 21
271.079
  0
LINE
  8
0
 10
119.523
 20
271.079
 11
119.778
 21
269.144
  0
LINE
  8
0
 10
119.778
 20
269.144
 11
118.59
 21
267.596
  0
LINE
  8
0
 10
118.59
 20
267.596
 11
116.655
 21
267.341
  0
LINE
  8
0
 10
116.655
 20
267.341
 11
115.107
 21
268.529
  0
LINE
  8
0
 10
140.107
 20
225.228
 11
139.852
 21
227.163
  0
LINE
  8
0
 10
139.852
 20
227.163
 11
141.04
 21
228.712
  0
LINE
  8
0
 10
141.04
 20
228.712
 11
142.975
 21
228.966
  0
LINE
  8
0
 10
142.975
 20
228.966
 11
144.523
 21
227.778
  0
LINE
  8
0
 10
144.523
 20
227.778
 11
144.778
 21
225.843
  0
LINE
  8
0
 10
144.778
 20
225.843
 11
143.59
 21
224.295
  0
LINE
  8
0
 10
143.59
 20
224.295
 11
141.655
 21
224.04
  0
LINE
  8
0
 10
141.655
 20
224.04
 11
140.107
 21
225.228
  0
LINE
  8
0
 10
-143.59
 20
224.295
 11
-144.778
 21
225.843
  0
LINE
  8
0
 10
-144.778
 20
225.843
 11
-144.523
 21
227.778
  0
LINE
  8
0
 10
-144.523
 20
227.778
 11
-142.975
 21
228.966
  0
LINE
  8
0
 10
-142.975
 20
228.966
 11
-141.04
 21
228.712
  0
LINE
  8
0
 10
-141.04
 20
228.712
 11
-139.852
 21
227.163
  0
LINE
  8
0
 10
-139.852
 20
227.163
 11
-140.107
 21
225.228
  0
LINE
  8
0
 10
-140.107
 20
225.228
 11
-141.655
 21
224.04
  0
LINE
  8
0
 10
-141.655
 20
224.04
 11
-143.59
 21
224.295
  0
LINE
  8
0
 10
-168.59
 20
180.994
 11
-169.778
 21
182.542
  0
LINE
  8
0
 10
-169.778
 20
182.542
 11
-169.523
 21
184.477
  0
LINE
  8
0
 10
-169.523
 20
184.477
 11
-167.975
 21
185.665
  0
LINE
  8
0
 10
-167.975
 20
185.665
 11
-166.04
 21
185.41
  0
LINE
  8
0
 10
-166.04
 20
185.41
 11
-164.852
 21
183.862
  0
LINE
  8
0
 10
-164.852
 20
183.862
 11
-165.107
 21
181.927
  0
LINE
  8
0
 10
-165.107
 20
181.927
 11
-166.655
 21
180.739
  0
LINE
  8
0
 10
-166.655
 20
180.739
 11
-168.59
 21
180.994
  0
LINE
  8
0
 10
165.107
 20
181.927
 11
164.852
 21
183.862
  0
LINE
  8
0
 10
164.852
 20
183.862
 11
166.04
 21
185.41
  0
LINE
  8
0
 10
166.04
 20
185.41
 11
167.975
 21
185.665
  0
LINE
  8
0
 10
167.975
 20
185.665
 11
169.523
 21
184.477
  0
LINE
  8
0
 10
169.523
 20
184.477
 11
169.778
 21
182.542
  0
LINE
  8
0
 10
169.778
 20
182.542
 11
168.59
 21
180.994
  0
LINE
  8
0
 10
168.59
 20
180.994
 11
166.655
 21
180.739
  0
LINE
  8
0
 10
166.655
 20
180.739
 11
165.107
 21
181.927
  0
LINE
  8
0
 10
-193.59
 20
137.692
 11
-194.778
 21
139.241
  0
LINE
  8
0
 10
-194.778
 20
139.241
 11
-194.523
 21
141.176
  0
LINE
  8
0
 10
-194.523
 20
141.176
 11
-192.975
 21
142.364
  0
LINE
  8
0
 10
-192.975
 20
142.364
 11
-191.04
 21
142.109
  0
LINE
  8
0
 10
-191.04
 20
142.109
 11
-189.852
 21
140.561
  0
LINE
  8
0
 10
-189.852
 20
140.561
 11
-190.107
 21
138.626
  0
LINE
  8
0
 10
-190.107
 20
138.626
 11
-191.655
 21
137.438
  0
LINE
  8
0
 10
-191.655
 20
137.438
 11
-193.59
 21
137.692
  0
LINE
  8
0
 10
190.107
 20
138.626
 11
189.852
 21
140.561
  0
LINE
  8
0
 10
189.852
 20
140.561
 11
191.04
 21
142.109
  0
LINE
  8
0
 10
191.04
 20
142.109
 11
192.975
 21
142.364
  0
LINE
  8
0
 10
192.975
 20
142.364
 11
194.523
 21
141.176
  0
LINE
  8
0
 10
194.523
 20
141.176
 11
194.778
 21
139.241
  0
LINE
  8
0
 10
194.778
 20
139.241
 11
193.59
 21
137.692
  0
LINE
  8
0
 10
193.59
 20
137.692
 11
191.655
 21
137.438
  0
LINE
  8
0
 10
191.655
 20
137.438
 11
190.107
 21
138.626
  0
LINE
  8
0
 10
215.107
 20
95.3244
 11
214.852
 21
97.2594
  0
LINE
  8
0
 10
214.852
 20
97.2594
 11
216.04
 21
98.8077
  0
LINE
  8
0
 10
216.04
 20
98.8077
 11
217.975
 21
99.0625
  0
LINE
  8
0
 10
217.975
 20
99.0625
 11
219.523
 21
97.8744
  0
LINE
  8
0
 10
219.523
 20
97.8744
 11
219.778
 21
95.9394
  0
LINE
  8
0
 10
219.778
 20
95.9394
 11
218.59
 21
94.391
  0
LINE
  8
0
 10
218.59
 20
94.391
 11
216.655
 21
94.1362
  0
LINE
  8
0
 10
216.655
 20
94.1362
 11
215.107
 21
95.3244
  0
LINE
  8
0
 10
-218.59
 20
94.391
 11
-219.778
 21
95.9394
  0
LINE
  8
0
 10
-219.778
 20
95.9394
 11
-219.523
 21
97.8744
  0
LINE
  8
0
 10
-219.523
 20
97.8744
 11
-217.975
 21
99.0625
  0
LINE
  8
0
 10
-217.975
 20
99.0625
 11
-216.04
 21
98.8077
  0
LINE
  8
0
 10
-216.04
 20
98.8077
 11
-214.852
 21
97.2594
  0
LINE
  8
0
 10
-214.852
 20
97.2594
 11
-215.107
 21
95.3244
  0
LINE
  8
0
 10
-215.107
 20
95.3244
 11
-216.655
 21
94.1362
  0
LINE
  8
0
 10
-216.655
 20
94.1362
 11
-218.59
 21
94.391
  0
LINE
  8
0
 10
240.107
 20
52.0231
 11
239.852
 21
53.9581
  0
LINE
  8
0
 10
239.852
 20
53.9581
 11
241.04
 21
55.5065
  0
LINE
  8
0
 10
241.04
 20
55.5065
 11
242.975
 21
55.7612
  0
LINE
  8
0
 10
242.975
 20
55.7612
 11
244.523
 21
54.5731
  0
LINE
  8
0
 10
244.523
 20
54.5731
 11
244.778
 21
52.6381
  0
LINE
  8
0
 10
244.778
 20
52.6381
 11
243.59
 21
51.0897
  0
LINE
  8
0
 10
243.59
 20
51.0897
 11
241.655
 21
50.835
  0
LINE
  8
0
 10
241.655
 20
50.835
 11
240.107
 21
52.0231
  0
LINE
  8
0
 10
-243.59
 20
51.0897
 11
-244.778
 21
52.6381
  0
LINE
  8
0
 10
-244.778
 20
52.6381
 11
-244.523
 21
54.5731
  0
LINE
  8
0
 10
-244.523
 20
54.5731
 11
-242.975
 21
55.7612
  0
LINE
  8
0
 10
-242.975
 20
55.7612
 11
-241.04
 21
55.5065
  0
LINE
  8
0
 10
-241.04
 20
55.5065
 11
-239.852
 21
53.9581
  0
LINE
  8
0
 10
-239.852
 20
53.9581
 11
-240.107
 21
52.0231
  0
LINE
  8
0
 10
-240.107
 20
52.0231
 11
-241.655
 21
50.835
  0
LINE
  8
0
 10
-241.655
 20
50.835
 11
-243.59
 21
51.0897
  0
LINE
  8
0
 10
-268.59
 20
7.78845
 11
-269.778
 21
9.33682
  0
LINE
  8
0
 10
-269.778
 20
9.33682
 11
-269.523
 21
11.2718
  0
LINE
  8
0
 10
-269.523
 20
11.2718
 11
-267.975
 21
12.4599
  0
LINE
  8
0
 10
-267.975
 20
12.4599
 11
-266.04
 21
12.2052
  0
LINE
  8
0
 10
-266.04
 20
12.2052
 11
-264.852
 21
10.6568
  0
LINE
  8
0
 10
-264.852
 20
10.6568
 11
-265.107
 21
8.72182
  0
LINE
  8
0
 10
-265.107
 20
8.72182
 11
-266.655
 21
7.53371
  0
LINE
  8
0
 10
-266.655
 20
7.53371
 11
-268.59
 21
7.78845
  0
LINE
  8
0
 10
265.107
 20
8.72182
 11
264.852
 21
10.6568
  0
LINE
  8
0
 10
264.852
 20
10.6568
 11
266.04
 21
12.2052
  0
LINE
  8
0
 10
266.04
 20
12.2052
 11
267.975
 21
12.4599
  0
LINE
  8
0
 10
267.975
 20
12.4599
 11
269.523
 21
11.2718
  0
LINE
  8
0
 10
269.523
 20
11.2718
 11
269.778
 21
9.33682
  0
LINE
  8
0
 10
269.778
 20
9.33682
 11
268.59
 21
7.78845
  0
LINE
  8
0
 10
268.59
 20
7.78845
 11
266.655
 21
7.53371
  0
LINE
  8
0
 10
266.655
 20
7.53371
 11
265.107
 21
8.72182
  0
LINE
  8
0
 10
-293.59
 20
-35.5128
 11
-294.778
 21
-33.9644
  0
LINE
  8
0
 10
-294.778
 20
-33.9644
 11
-294.523
 21
-32.0294
  0
LINE
  8
0
 10
-294.523
 20
-32.0294
 11
-292.975
 21
-30.8413
  0
LINE
  8
0
 10
-292.975
 20
-30.8413
 11
-291.04
 21
-31.0961
  0
LINE
  8
0
 10
-291.04
 20
-31.0961
 11
-289.852
 21
-32.6445
  0
LINE
  8
0
 10
-289.852
 20
-32.6445
 11
-290.107
 21
-34.5794
  0
LINE
  8
0
 10
-290.107
 20
-34.5794
 11
-291.655
 21
-35.7675
  0
LINE
  8
0
 10
-291.655
 20
-35.7675
 11
-293.59
 21
-35.5128
  0
LINE
  8
0
 10
290.107
 20
-34.5794
 11
289.852
 21
-32.6445
  0
LINE
  8
0
 10
289.852
 20
-32.6445
 11
291.04
 21
-31.0961
  0
LINE
  8
0
 10
291.04
 20
-31.0961
 11
292.975
 21
-30.8413
  0
LINE
  8
0
 10
292.975
 20
-30.8413
 11
294.523
 21
-32.0294
  0
LINE
  8
0
 10
294.523
 20
-32.0294
 11
294.778
 21
-33.9644
  0
LINE
  8
0
 10
294.778
 20
-33.9644
 11
293.59
 21
-35.5128
  0
LINE
  8
0
 10
293.59
 20
-35.5128
 11
291.655
 21
-35.7675
  0
LINE
  8
0
 10
291.655
 20
-35.7675
 11
290.107
 21
-34.5794
  0
LINE
  8
0
 10
315.107
 20
-77.8807
 11
314.852
 21
-75.9457
  0
LINE
  8
0
 10
314.852
 20
-75.9457
 11
316.04
 21
-74.3974
  0
LINE
  8
0
 10
316.04
 20
-74.3974
 11
317.975
 21
-74.1426
  0
LINE
  8
0
 10
317.975
 20
-74.1426
 11
319.523
 21
-75.3307
  0
LINE
  8
0
 10
319.523
 20
-75.3307
 11
319.778
 21
-77.2657
  0
LINE
  8
0
 10
319.778
 20
-77.2657
 11
318.59
 21
-78.8141
  0
LINE
  8
0
 10
318.59
 20
-78.8141
 11
316.655
 21
-79.0688
  0
LINE
  8
0
 10
316.655
 20
-79.0688
 11
315.107
 21
-77.8807
  0
LINE
  8
0
 10
-318.59
 20
-78.8141
 11
-319.778
 21
-77.2657
  0
LINE
  8
0
 10
-319.778
 20
-77.2657
 11
-319.523
 21
-75.3307
  0
LINE
  8
0
 10
-319.523
 20
-75.3307
 11
-317.975
 21
-74.1426
  0
LINE
  8
0
 10
-317.975
 20
-74.1426
 11
-316.04
 21
-74.3974
  0
LINE
  8
0
 10
-316.04
 20
-74.3974
 11
-314.852
 21
-75.9457
  0
LINE
  8
0
 10
-314.852
 20
-75.9457
 11
-315.107
 21
-77.8807
  0
LINE
  8
0
 10
-315.107
 20
-77.8807
 11
-316.655
 21
-79.0688
  0
LINE
  8
0
 10
-316.655
 20
-79.0688
 11
-318.59
 21
-78.8141
  0
LINE
  8
0
 10
322.504
 20
-131.407
 11
321.316
 21
-129.859
  0
LINE
  8
0
 10
321.316
 20
-129.859
 11
321.57
 21
-127.924
  0
LINE
  8
0
 10
321.57
 20
-127.924
 11
323.119
 21
-126.736
  0
LINE
  8
0
 10
323.119
 20
-126.736
 11
325.054
 21
-126.99
  0
LINE
  8
0
 10
325.054
 20
-126.99
 11
326.242
 21
-128.539
  0
LINE
  8
0
 10
326.242
 20
-128.539
 11
325.987
 21
-130.474
  0
LINE
  8
0
 10
325.987
 20
-130.474
 11
324.439
 21
-131.662
  0
LINE
  8
0
 10
324.439
 20
-131.662
 11
322.504
 21
-131.407
  0
LINE
  8
0
 10
-325.987
 20
-130.474
 11
-326.242
 21
-128.539
  0
LINE
  8
0
 10
-326.242
 20
-128.539
 11
-325.054
 21
-126.99
  0
LINE
  8
0
 10
-325.054
 20
-126.99
 11
-323.119
 21
-126.736
  0
LINE
  8
0
 10
-323.119
 20
-126.736
 11
-321.57
 21
-127.924
  0
LINE
  8
0
 10
-321.57
 20
-127.924
 11
-321.316
 21
-129.859
  0
LINE
  8
0
 10
-321.316
 20
-129.859
 11
-322.504
 21
-131.407
  0
LINE
  8
0
 10
-322.504
 20
-131.407
 11
-324.439
 21
-131.662
  0
LINE
  8
0
 10
-324.439
 20
-131.662
 11
-325.987
 21
-130.474
  0
LINE
  8
0
 10
312.504
 20
-148.728
 11
311.316
 21
-147.179
  0
LINE
  8
0
 10
311.316
 20
-147.179
 11
311.57
 21
-145.244
  0
LINE
  8
0
 10
311.57
 20
-145.244
 11
313.119
 21
-144.056
  0
LINE
  8
0
 10
313.119
 20
-144.056
 11
315.054
 21
-144.311
  0
LINE
  8
0
 10
315.054
 20
-144.311
 11
316.242
 21
-145.859
  0
LINE
  8
0
 10
316.242
 20
-145.859
 11
315.987
 21
-147.794
  0
LINE
  8
0
 10
315.987
 20
-147.794
 11
314.439
 21
-148.982
  0
LINE
  8
0
 10
314.439
 20
-148.982
 11
312.504
 21
-148.728
  0
LINE
  8
0
 10
-315.987
 20
-147.794
 11
-316.242
 21
-145.859
  0
LINE
  8
0
 10
-316.242
 20
-145.859
 11
-315.054
 21
-144.311
  0
LINE
  8
0
 10
-315.054
 20
-144.311
 11
-313.119
 21
-144.056
  0
LINE
  8
0
 10
-313.119
 20
-144.056
 11
-311.57
 21
-145.244
  0
LINE
  8
0
 10
-311.57
 20
-145.244
 11
-311.316
 21
-147.179
  0
LINE
  8
0
 10
-311.316
 20
-147.179
 11
-312.504
 21
-148.728
  0
LINE
  8
0
 10
-312.504
 20
-148.728
 11
-314.439
 21
-148.982
  0
LINE
  8
0
 10
-314.439
 20
-148.982
 11
-315.987
 21
-147.794
  0
LINE
  8
0
 10
-305.297
 20
-181.46
 11
-304.638
 21
-179.001
  0
LINE
  8
0
 10
-304.638
 20
-179.001
 11
-307.338
 21
-174.324
  0
LINE
  8
0
 10
-307.338
 20
-174.324
 11
-309.797
 21
-173.665
  0
LINE
  8
0
 10
-309.797
 20
-173.665
 11
-312.61
 21
-168.794
  0
LINE
  8
0
 10
-312.61
 20
-168.794
 11
-295.073
 21
-158.669
  0
LINE
  8
0
 10
-295.073
 20
-158.669
 11
-284.948
 21
-176.206
  0
LINE
  8
0
 10
-284.948
 20
-176.206
 11
-302.485
 21
-186.331
  0
LINE
  8
0
 10
-302.485
 20
-186.331
 11
-305.297
 21
-181.46
  0
LINE
  8
0
 10
284.948
 20
-176.206
 11
295.073
 21
-158.669
  0
LINE
  8
0
 10
295.073
 20
-158.669
 11
312.61
 21
-168.794
  0
LINE
  8
0
 10
312.61
 20
-168.794
 11
309.797
 21
-173.665
  0
LINE
  8
0
 10
309.797
 20
-173.665
 11
307.338
 21
-174.324
  0
LINE
  8
0
 10
307.338
 20
-174.324
 11
304.638
 21
-179.001
  0
LINE
  8
0
 10
304.638
 20
-179.001
 11
305.297
 21
-181.46
  0
LINE
  8
0
 10
305.297
 20
-181.46
 11
302.485
 21
-186.331
  0
LINE
  8
0
 10
302.485
 20
-186.331
 11
284.948
 21
-176.206
  0
LINE
  8
0
 10
282.504
 20
-200.689
 11
281.316
 21
-199.141
  0
LINE
  8
0
 10
281.316
 20
-199.141
 11
281.57
 21
-197.206
  0
LINE
  8
0
 10
281.57
 20
-197.206
 11
283.119
 21
-196.018
  0
LINE
  8
0
 10
283.119
 20
-196.018
 11
285.054
 21
-196.272
  0
LINE
  8
0
 10
285.054
 20
-196.272
 11
286.242
 21
-197.821
  0
LINE
  8
0
 10
286.242
 20
-197.821
 11
285.987
 21
-199.756
  0
LINE
  8
0
 10
285.987
 20
-199.756
 11
284.439
 21
-200.944
  0
LINE
  8
0
 10
284.439
 20
-200.944
 11
282.504
 21
-200.689
  0
LINE
  8
0
 10
-285.987
 20
-199.756
 11
-286.242
 21
-197.821
  0
LINE
  8
0
 10
-286.242
 20
-197.821
 11
-285.054
 21
-196.272
  0
LINE
  8
0
 10
-285.054
 20
-196.272
 11
-283.119
 21
-196.018
  0
LINE
  8
0
 10
-283.119
 20
-196.018
 11
-281.57
 21
-197.206
  0
LINE
  8
0
 10
-281.57
 20
-197.206
 11
-281.316
 21
-199.141
  0
LINE
  8
0
 10
-281.316
 20
-199.141
 11
-282.504
 21
-200.689
  0
LINE
  8
0
 10
-282.504
 20
-200.689
 11
-284.439
 21
-200.944
  0
LINE
  8
0
 10
-284.439
 20
-200.944
 11
-285.987
 21
-199.756
  0
LINE
  8
0
 10
-275.987
 20
-217.076
 11
-276.242
 21
-215.141
  0
LINE
  8
0
 10
-276.242
 20
-215.141
 11
-275.054
 21
-213.593
  0
LINE
  8
0
 10
-275.054
 20
-213.593
 11
-273.119
 21
-213.338
  0
LINE
  8
0
 10
-273.119
 20
-213.338
 11
-271.57
 21
-214.526
  0
LINE
  8
0
 10
-271.57
 20
-214.526
 11
-271.316
 21
-216.461
  0
LINE
  8
0
 10
-271.316
 20
-216.461
 11
-272.504
 21
-218.01
  0
LINE
  8
0
 10
-272.504
 20
-218.01
 11
-274.439
 21
-218.264
  0
LINE
  8
0
 10
-274.439
 20
-218.264
 11
-275.987
 21
-217.076
  0
LINE
  8
0
 10
272.504
 20
-218.01
 11
271.316
 21
-216.461
  0
LINE
  8
0
 10
271.316
 20
-216.461
 11
271.57
 21
-214.526
  0
LINE
  8
0
 10
271.57
 20
-214.526
 11
273.119
 21
-213.338
  0
LINE
  8
0
 10
273.119
 20
-213.338
 11
275.054
 21
-213.593
  0
LINE
  8
0
 10
275.054
 20
-213.593
 11
276.242
 21
-215.141
  0
LINE
  8
0
 10
276.242
 20
-215.141
 11
275.987
 21
-217.076
  0
LINE
  8
0
 10
275.987
 20
-217.076
 11
274.439
 21
-218.264
  0
LINE
  8
0
 10
274.439
 20
-218.264
 11
272.504
 21
-218.01
  0
LINE
  8
0
 10
123.197
 20
-238.303
 11
122.45
 21
-236.5
  0
LINE
  8
0
 10
122.45
 20
-236.5
 11
123.197
 21
-234.697
  0
LINE
  8
0
 10
123.197
 20
-234.697
 11
125
 21
-233.95
  0
LINE
  8
0
 10
125
 20
-233.95
 11
126.803
 21
-234.697
  0
LINE
  8
0
 10
126.803
 20
-234.697
 11
127.55
 21
-236.5
  0
LINE
  8
0
 10
127.55
 20
-236.5
 11
126.803
 21
-238.303
  0
LINE
  8
0
 10
126.803
 20
-238.303
 11
125
 21
-239.05
  0
LINE
  8
0
 10
125
 20
-239.05
 11
123.197
 21
-238.303
  0
LINE
  8
0
 10
-127.55
 20
-236.5
 11
-126.803
 21
-234.697
  0
LINE
  8
0
 10
-126.803
 20
-234.697
 11
-125
 21
-233.95
  0
LINE
  8
0
 10
-125
 20
-233.95
 11
-123.197
 21
-234.697
  0
LINE
  8
0
 10
-123.197
 20
-234.697
 11
-122.45
 21
-236.5
  0
LINE
  8
0
 10
-122.45
 20
-236.5
 11
-123.197
 21
-238.303
  0
LINE
  8
0
 10
-123.197
 20
-238.303
 11
-125
 21
-239.05
  0
LINE
  8
0
 10
-125
 20
-239.05
 11
-126.803
 21
-238.303
  0
LINE
  8
0
 10
-126.803
 20
-238.303
 11
-127.55
 21
-236.5
  0
LINE
  8
0
 10
173.197
 20
-238.303
 11
172.45
 21
-236.5
  0
LINE
  8
0
 10
172.45
 20
-236.5
 11
173.197
 21
-234.697
  0
LINE
  8
0
 10
173.197
 20
-234.697
 11
175
 21
-233.95
  0
LINE
  8
0
 10
175
 20
-233.95
 11
176.803
 21
-234.697
  0
LINE
  8
0
 10
176.803
 20
-234.697
 11
177.55
 21
-236.5
  0
LINE
  8
0
 10
177.55
 20
-236.5
 11
176.803
 21
-238.303
  0
LINE
  8
0
 10
176.803
 20
-238.303
 11
175
 21
-239.05
  0
LINE
  8
0
 10
175
 20
-239.05
 11
173.197
 21
-238.303
  0
LINE
  8
0
 10
-226.803
 20
-238.303
 11
-227.55
 21
-236.5
  0
LINE
  8
0
 10
-227.55
 20
-236.5
 11
-226.803
 21
-234.697
  0
LINE
  8
0
 10
-226.803
 20
-234.697
 11
-225
 21
-233.95
  0
LINE
  8
0
 10
-225
 20
-233.95
 11
-223.197
 21
-234.697
  0
LINE
  8
0
 10
-223.197
 20
-234.697
 11
-222.45
 21
-236.5
  0
LINE
  8
0
 10
-222.45
 20
-236.5
 11
-223.197
 21
-238.303
  0
LINE
  8
0
 10
-223.197
 20
-238.303
 11
-225
 21
-239.05
  0
LINE
  8
0
 10
-225
 20
-239.05
 11
-226.803
 21
-238.303
  0
LINE
  8
0
 10
-176.803
 20
-238.303
 11
-177.55
 21
-236.5
  0
LINE
  8
0
 10
-177.55
 20
-236.5
 11
-176.803
 21
-234.697
  0
LINE
  8
0
 10
-176.803
 20
-234.697
 11
-175
 21
-233.95
  0
LINE
  8
0
 10
-175
 20
-233.95
 11
-173.197
 21
-234.697
  0
LINE
  8
0
 10
-173.197
 20
-234.697
 11
-172.45
 21
-236.5
  0
LINE
  8
0
 10
-172.45
 20
-236.5
 11
-173.197
 21
-238.303
  0
LINE
  8
0
 10
-173.197
 20
-238.303
 11
-175
 21
-239.05
  0
LINE
  8
0
 10
-175
 20
-239.05
 11
-176.803
 21
-238.303
  0
LINE
  8
0
 10
76.8031
 20
-234.697
 11
77.55
 21
-236.5
  0
LINE
  8
0
 10
77.55
 20
-236.5
 11
76.8031
 21
-238.303
  0
LINE
  8
0
 10
76.8031
 20
-238.303
 11
75
 21
-239.05
  0
LINE
  8
0
 10
75
 20
-239.05
 11
73.1969
 21
-238.303
  0
LINE
  8
0
 10
73.1969
 20
-238.303
 11
72.45
 21
-236.5
  0
LINE
  8
0
 10
72.45
 20
-236.5
 11
73.1969
 21
-234.697
  0
LINE
  8
0
 10
73.1969
 20
-234.697
 11
75
 21
-233.95
  0
LINE
  8
0
 10
75
 20
-233.95
 11
76.8031
 21
-234.697
  0
LINE
  8
0
 10
-26.8031
 20
-238.303
 11
-27.55
 21
-236.5
  0
LINE
  8
0
 10
-27.55
 20
-236.5
 11
-26.8031
 21
-234.697
  0
LINE
  8
0
 10
-26.8031
 20
-234.697
 11
-25
 21
-233.95
  0
LINE
  8
0
 10
-25
 20
-233.95
 11
-23.1969
 21
-234.697
  0
LINE
  8
0
 10
-23.1969
 20
-234.697
 11
-22.45
 21
-236.5
  0
LINE
  8
0
 10
-22.45
 20
-236.5
 11
-23.1969
 21
-238.303
  0
LINE
  8
0
 10
-23.1969
 20
-238.303
 11
-25
 21
-239.05
  0
LINE
  8
0
 10
-25
 20
-239.05
 11
-26.8031
 21
-238.303
  0
LINE
  8
0
 10
223.197
 20
-238.303
 11
222.45
 21
-236.5
  0
LINE
  8
0
 10
222.45
 20
-236.5
 11
223.197
 21
-234.697
  0
LINE
  8
0
 10
223.197
 20
-234.697
 11
225
 21
-233.95
  0
LINE
  8
0
 10
225
 20
-233.95
 11
226.803
 21
-234.697
  0
LINE
  8
0
 10
226.803
 20
-234.697
 11
227.55
 21
-236.5
  0
LINE
  8
0
 10
227.55
 20
-236.5
 11
226.803
 21
-238.303
  0
LINE
  8
0
 10
226.803
 20
-238.303
 11
225
 21
-239.05
  0
LINE
  8
0
 10
225
 20
-239.05
 11
223.197
 21
-238.303
  0
LINE
  8
0
 10
26.8031
 20
-238.303
 11
25
 21
-239.05
  0
LINE
  8
0
 10
25
 20
-239.05
 11
23.1969
 21
-238.303
  0
LINE
  8
0
 10
23.1969
 20
-238.303
 11
22.45
 21
-236.5
  0
LINE
  8
0
 10
22.45
 20
-236.5
 11
23.1969
 21
-234.697
  0
LINE
  8
0
 10
23.1969
 20
-234.697
 11
25
 21
-233.95
  0
LINE
  8
0
 10
25
 20
-233.95
 11
26.8031
 21
-234.697
  0
LINE
  8
0
 10
26.8031
 20
-234.697
 11
27.55
 21
-236.5
  0
LINE
  8
0
 10
27.55
 20
-236.5
 11
26.8031
 21
-238.303
  0
LINE
  8
0
 10
-77.55
 20
-236.5
 11
-76.8031
 21
-234.697
  0
LINE
  8
0
 10
-76.8031
 20
-234.697
 11
-75
 21
-233.95
  0
LINE
  8
0
 10
-75
 20
-233.95
 11
-73.1969
 21
-234.697
  0
LINE
  8
0
 10
-73.1969
 20
-234.697
 11
-72.45
 21
-236.5
  0
LINE
  8
0
 10
-72.45
 20
-236.5
 11
-73.1969
 21
-238.303
  0
LINE
  8
0
 10
-73.1969
 20
-238.303
 11
-75
 21
-239.05
  0
LINE
  8
0
 10
-75
 20
-239.05
 11
-76.8031
 21
-238.303
  0
LINE
  8
0
 10
-76.8031
 20
-238.303
 11
-77.55
 21
-236.5
  0
ENDSEC
  0
SECTION
  2
OBJECTS
  0
DICTIONARY
  0
ENDSEC
  0
EOF
